<?xml version="1.0" encoding="UTF-8"?>
<svg id="Calque_1" data-name="Calque 1" xmlns="http://www.w3.org/2000/svg" viewBox="0 0 650.04 491.89">
  <path d="M237.4,337.34c3.92,3.58,8.31,17.39,12.53,22.91,6.53,8.54,18.94,6.01,28.45,7.58,1.98.33,3.61.57,2.97,2.97-8.95-.21-27.5.06-33.63-7.25-4.38-5.22-9.4-20.1-12.66-23.32-7.23-7.15-29.97,4.92-34.8,13.81-.32.59-.25,1.32.18,1.83,4.77,5.54,10.84-4.06,15.96-4.74,5.69-.76,11.43,1.67,16.97,2.25,1.64,1.55-.13,1.97-1.62,2.17-5.07.69-9.74-1.46-14.74-1.09.28,3.03,2.49,5.34,3.01,8.43,1.2,7.21,1.49,19.73-1.37,26.46-1.15,2.71-3.69,3.72-3.82,6.53,11.2,5.77,11.4-1.51,19.96-5.14l46.92,11.67.73,3.28c-11.34-2.58-22.75-5.09-34.04-7.94-4.01-1.01-11.68-5.04-15-3.53-2.37,1.08-4.69,6.4-8.34,6.81-3.84.43-8.77-3.6-12.04-3.76-2.18-.11-4.72,1.69-7.45,1.88-15.77,1.12-21.21-5-34.05-8.49-7.07-1.92-11.13-.48-18.77-5.22-1.43-.88-4.14-4.61-4.96-4.59-.74.02-1.93,2.37-4.16,1.83-1.69-.4-4-4.24-5.67-5.33-1.54.02-2.88,8.44-7.55,7.69-.96-.16-3.55-8.12-6.61-7.72-7.05,13.23-9.91,6.85-16.39-2.17l-9.8,9.44-10.88-9.51c-3.72-.03-12.56,17.24-18.03.07-4.19-.18-6.36,4.97-9.74,6.07-7.55,2.46-8.92-5.51-13.69-9.31-3.02,2.03-4.41,7.54-8.54,7.33-6.44-.34-28.34-16.98-33.46-22.06-6.67-6.61-2.07-9.29,5.22-11.16,11.26-2.89,36.5-4.13,48.78-4.65,29.85-1.28,59.6.9,89.41.09,16.06-.44,40.02-5.78,55.39-.97,1.63.51,4.03,2.74,4.59,2.74s7.54-4.5,9.62-5.34c6.04-2.42,15.63-5.57,21.13-.55ZM212.25,383.13c1.95,3.21,2.57,4.62-1.13,6.3-2.41,1.1-17.8,2.03-19.57.89-8.09-10.14-26.94-43-2.39-44.67,5.28-.36,11.06,3.53,13.7.62s-5.36-3.73-7.06-3.87c-6.01-.51-46.22-.33-48.57,2.24-1.59,1.74.82,2,1.38,2.48,2.66,2.29,10.59,7.12,11.52,10.28,1.61,5.47-5.39,9.24-1.86,15.97.95,1.82,8.76,9.46,10.75,11.06,8.47,6.82,25.64,13.07,36.48,11.36,17.58-2.76,11.48-38.79,7.72-39.08l-7.1,3.18c4.86,4.38,7.9,6.44,2.18,11.96,4.02.75,6,3.92,5.51,7.78-.07.51-.48.91-.99.92l-2.34.05c1.78,2.52,1.45,1.97,1.78,2.52ZM143.79,343.71c-46.4,1.86-93.28-1.7-139.15,6.12-1.15.6-2.8,1.39-2.46,2.96.43,1.96,28.61,22.66,32.44,23.29,5.66.94,5.17-3.85,7.57-5.33,6.87-4.23,8.83,5.04,12.98,8.69,2.98.73,8.53-8,12.95-7.63,4.17.35,3.43,7.94,6.56,7.81,5.54-.22,7.05-8.65,13.04-7.77,4.09.6,7.18,10.52,9.86,9.85l6.22-9.59c7.01-2.05,8.63,5.49,12.33,9.57,3.74-2.52,4.82-9.66,10.35-7.08,2.49,1.17,2.99,5.61,6,6.02.8,0,1.79-6.61,5.46-6.59l5.6,4.31c7.02-5,6.42.97,10.92,4.29,2.71,2,7.91,3.78,11.29,4.51-4.22-5.83-12.5-10.52-11.77-18.75.27-3.03,2.58-6.14,2.88-8.23.79-5.51-13.21-9.88-13.08-16.46ZM188.66,349c-12.76,1.51-8.88,11.82-5.65,20.36.86,2.26,8.46,17.79,9.47,17.77l3.82-6.51c-6.91.3-11.49-2.76-6.57-9.28l-4.94-2.66c-3.18-4.52,3.86-8.71,3.85-9.33,0-.86-7.85-5.97.02-10.35ZM199.88,351.91c-19.49-5.68-15.13,10.79,2.68,7.51l-3.17-3.22c-.06-.06-.12-.13-.18-.19-.8-.9-.83-2.25-.07-3.19l.74-.91ZM208.28,367.52c-1.91-8.41-11.58-3.1-16.92-6.18-2.21,2.11-8.4,5.76-2.17,6.19,6.66.46,12.51,1.18,19.1,0ZM194.66,378.43c5.18.7,11.57-.51,16.9,0-3.17-7.95-19.14-12.01-20.67-1.49-.04.27.05.56.27.74.88.7,2.73.65,3.49.75ZM206.92,382.01c-7.01-2.98-15.35,5.63-6.82,6.33,3.45.28,6.85-1.67,10.36-1.19.73-.61-3.25-5.01-3.54-5.14Z"/>
  <path d="M506.02,390.42l-2.77-12.03c-7.33,2.01-24.42,16.41-31.42,14.09-5.31-1.76.46-9.51,3.13-11.85,4.17-3.64,27.02-16.62,31.87-17.29,2.54-.35,3.73,1.57,5.18,1.6,1.69.04,6.12-3.13,8.61-2.64,2.21.44,2.81,4.6,4.65,5.11,1.56.44,4.09-1.27,6.32-1.02,4.32.49,3.18,4.79,4.91,7.18,1,1.39,3.97,2.32,5.54,4.27,6.08,7.55,1.06,17.39,3.81,23.45.68,1.5,3.66,3.24,4.86,4.95,11.98,16.99,17.85,41.02,19.64,61.58-2.08-.38-1.81-2.27-2.22-3.76-5.04-18.13-7.5-42.05-20.35-57-.67-.78.04-2.06-2.49-1.38,1.27,6.78-1.4,14.99-1.14,21.2.5,11.69,7.52,27.75,9.57,39.59.21,1.22,1.34,5.72-.79,5.7-3.17-13.25-9.37-28.62-10.8-42.08-1.35-12.68,2.03-26.16,1.02-39.18-.34-4.38-1.04-13.03-6.58-13.59-1.53,6.97-1.05,14.25-2.18,21.27-.26,1.62-.06,3.36-2.18,3.81l.6-31.68c-11.92-5.76-5.16,13.51-4.92,20.18.08,2.19,1.1,7.07-2.23,6.04-.38-7.34-.97-15.99-2.49-23.14-1.37-6.44-2.42-11.64-9.43-5.62,1.02,7.76,3.79,16.1,4.28,23.87.14,2.16-.23,1.71-2.17,1.62-1.65-4.54-3.31-24.75-6.54-26.76-.9-.56-1.64-.57-2.65-.51-5.75.34-31.4,15.65-34.44,22.37,9.13,3.12,25.41-16.54,32.73-12.03,1.04.64,1.8,3.08,2.21,4.34,1.84,5.6,2.88,26.71,2.18,32.81-.19,1.63-.12,2.75-1.7,3.76-3.47-1.17-24.66-20.82-26.7-18.53-.68,5.23,2.88,9.45,5.26,13.81,3.46,6.32,19.93,27.26,20.68,30.57,1.25,5.5-.33,21.37-1.91,27.08-.41,1.5-.13,3.39-2.22,3.77l1.9-29.72c-8.06-11.28-17.72-22.46-23.91-34.97-2.12-4.28-4.78-7.77-2-12.71-13.75,3.36-24.64,14.93-31.62,26.71,12.48,7.4,5.01,24.23,6.5,35.94-1.38,7.24-9.1,1.41-13.51.67l-6.08,10.81,2.08-14.06-6.44-2.3c-.89.65-.75,8.75-4.37,7.63l2.26-10.19c-2.22-1.88-5.24-2.76-7.22-5.02-6.5-7.42-.94-11.12,5.04-15.76,3.06-2.38,8.67-6.06,12.2-7.43,2.52-.97,5.63-.41,7.33-1.39,1.15-.66,5.27-8.27,7.08-10.37,7.86-9.06,26.01-21.79,38.18-21.79h15.81ZM507.1,413.32c-.02-6.77.64-13.84-2.1-20.24-7.44-1.93-14.58,1.11-21.88,1.72l23.99,18.52ZM451.49,451.48v-17.99c0-1.23-2.94-5.87-4.38-6.52-8.12-3.65-17.51,5.99-23.98,9.8l18.57,7.6,9.8,7.11ZM450.39,460.2c3.61-9.57-27.07-22.2-30.53-19.61l8.19,8.69c1.79-1.41.81-4.05,3.8-3.25-.98,5.17,1.35,6.09,4.92,8.7l3.27-4.32c3.24,1.64-.09,5.01.99,6.56l9.37,3.23Z"/>
  <path d="M512.56,341.36c-7.24-.07-11.86,7.56-18.53,2.18-2.38,20.05-13.05-1.97-14.18-1.09-2.02,6.13-2.62,12.07-2.2,18.54h-3.26c.14-2.45-1.15-15.08-4.9-14.18-.85.21-3.49,5.12-3.58,6.18-.26,3.11,6.23,9.33,2.01,15.17l-2.62,1.4-3.47-1.76-5.27,3.9c-3.8.09-4.88-8.06-7.79-7.43-2.42.53-.14,8.79-.51,11.5-.68,5.1-4.14,6.93-8.77,4.85-.04,2.37-.49,6.53-2.11,8.26-1.94,2.07-4.55,1.09-5.34,1.74-.56.47-1.17,7.01-3.38,9.16-2.03,1.97-4.19,1.05-5.29,1.79-.6.4-1.56,4.42-4.04,6.32-2.83,2.17-5.88,1.65-6.89,2.37-1.52,1.08-1.21,10.38-5.68,12.32-2.57,1.11-4.77.09-6.86.54-1.34.29-1.91,4.83-4.04,3.85-2.48-1.15,2.5-3.97,2.01-6.39-.41-2.03-7.06-7.06-4.04-12.53,2.76-1.58,4.63-1.29,6.42,1.44,2.17,3.31.11,17.65,6.51,8.76,6.59-9.15-1.06-12.72-4.56-19.43-1.45-2.77-5.83-13.53-1.32-14.86,7.56-2.24,11.95,17.58,11.34,22.85,16.45-1.71-1.58-11.94,5.39-20.25,1.94-1.37,3.91.11,4.94,1.74l3.29,9.79c1.19-1.99,3.43-5.17,3.66-7.38.37-3.49-6.12-7.58-.96-12.84,6.54-.23,1.18,2.07,1.1,2.37-.93,3.55,1.34,6.01,3.85,8.01,3.59-2.33,3.28-8.52,2.66-12.45-.42-2.67-2.97-10.96-6.47-9.34,4.53-3.22-4.32-12.04,3.38-9.16,1.7,9.01,5-1.45,9.71-1.73,1.39,4.74-6.66,6.82-6.56,9.16,2.31,4.86,1.61,14.08,8.73,13.72,2.05-4.89.77-9.38-2.13-13.63l9.05-3.88,4.54,7.71,2.52-2.87c-.92-4.21-3.06-6.52-1.14-11.01,2.19-5.11,5.33-2.36,5.62-2.57,1.49-1.04,2.67-11.46,8.85-8.12,1.85,1,1.34,3.8,3.23,3.85,5.26-19.57,10.83,1.04,13.65,1.08,3.61-2.26.46-14.98,1.64-16.33,4.78-.03,4.66,9.84,9.26,9.85,5.35,0,3.64-13.26,10.94-13.09,4.86.11,3.85,7.59,3.79,10.87.93,1.05,5.16-2.38,6.04-3.22,3.15-3.02,2.84-7.45,7.04-6.58-4.54,18.83,4.29,20.15,7.65,2.17,4.74-.51.67,6.67,1.52,9.83,1,3.76,4.77,5,8.29,4.35-1.29-19.71,18.92-14.34,4.44,1.48,6.88,10.19,13.33.23,19.54-4.75-1.44,7.76-10.24,16.15-17.99,10.9-1.67-1.13-3.53-4.36-4.92-4.94-2.38-.98-10.14,2.14-10.9-4.87h-2.14c-4.77,9.31-9.13,1.55-10.37-5.45l-7.68,4.32c-1.44,2.12-.08,10.37-.51,13.68-.26,1.99.37,1.76-2.18,1.62v-17.45ZM511.46,332.64c-4.22.07-4.79,4.23-4.35,7.62,3.01,1.18,4.78-7.15,4.35-7.62ZM548.56,343.54c2.84-1.09,3.63-3.66,3.25-6.54-2.84,1.09-3.63,3.66-3.25,6.54ZM461.29,359.89c.45-.49,1.17-4.33,1.09-5.44-2.51.7-2.31,3.46-2.16,5.45.35-.06.92.15,1.07,0ZM466.75,366.43l-1.62-7.62c-3.32,3.08-4.41,8.19,1.62,7.62ZM408.94,402.42c.19-1.72-4.59-18.53-7.62-15.26,1.36,5.38,3.03,11.7,7.62,15.26ZM420.94,395.88c.03-2.4.62-5.7-2.16-6.54-.03,2.4-.62,5.7,2.16,6.54ZM398.03,410.06c-4.49-.9-1.23,5.9,1.1,6.54l-1.1-6.54Z"/>
  <path d="M140.67,44.78c1.83,11.44,5.83,23.64,11.54,33.72,5.24,9.23,13.23,16.79,18.07,26.08l11.83-.92-11.97-18.01c-.63-2.09,1.5-2.02,2.7-1.63,1.11.36,10.39,17.23,12.75,19.44l22.69-5.78c-2.41-4.94-23.33-3.44-25.07-4.92l1.06-2.76,22.16,1.9c5.05,1.43,8.58,15.1,12.26,18.28,1.37,1.19,1.87,1.42,3.77,1.12-1.04-12.61.89-20.2-12.22-25.39-5.87-2.32-19.06-3.29-22.69-5.67-.52-.34-1.42-1.39-1.08-1.64,9.31.11,26.99,2.43,33.72,9.34,3.78,3.89,8.21,23.19,3.37,26.12-7.75,4.7-12.2-13.46-14.72-13.46-26.72,11.77-63.57,11.57-85.62-10.03.63,18.85,5.97,48.45,24.33,57.99,13.64,7.09,46.22,5.19,60.04-1.42,12.99-6.21,14.98-19.99,20.87-31.47.64-1.26,1.01-3.02,2.7-3.29-.16,10.44-9.01,29.27-17.51,35.37-13.55,9.71-52.49,11.27-67.19,4.08-16.68-8.16-24.17-32.67-26.42-49.92-2.33-17.91-.5-35.56,20.61-38.59,1.93,1.65-10.63,7.88-12.03,9.22-2.1,2.02-5.45,6.72-5.21,9.57,1.15,13.76,31.48,23.27,43.42,22.62-12.09-16.57-24.83-32.01-28.07-53.15-.32-2.08-1.72-7.83,1.89-6.81Z"/>
  <path d="M92.68,142.91l-2.17-3.27c-4.84-.54-9.68,12.38-6.99,14.3,3.08.92,7.55,1.71,10.61.76,3.58-1.11,8.89-15.52,18.13-5.65,1.54,5.31-11.53,7.49-15.1,8.12-1.33,9.37,5.24,7.76,11.18,4.1,3.31-2.04,6.21-8.29,8.84-7.49,1.95,4.64,9.67,4.41,7.8,10.96-.59,2.08-8.42,11.77-7.18,13.07,6.6,0,13.34-10.41,18.82-9.63,9,1.28-1.35,13.6.81,19.44,7.9-2.58,11.56-13.27,20.71-11.99l-1.09,7.62c1.8,1.47,8.73-9.6,11.91-3.73l-1,3.73,7.62-3.27-1.09,14.18c8.39,1.23,11.69-7.7,16.38-12.52,1.04-1.07,1.43-2.07,3.24-1.65,1.66,1.88-7.26,17.88,2.51,15.08,6.61-1.9,4.03-15.53,13.27-16.03,8.36-.45,5.47,10.19,8.75,15.11,8.63-3.86,7.45-12.48,10.92-19.59l6.54,16.31c5.25-4.95,4.59-12.98,6.01-19.61,2.89-.27,1.76-.04,2.15,1.63.97,4.15.36,9.39,3.82,12.5,1.08.08,7.67-5.85,8.04-7.28,1.1-4.25-4.53-16.11,7.64-14.33,3.26,5.58-.75,8.89-2.03,14.02,8.11-.45,11.55-9.05,17.99-13.07.86,5.38-10.12,15.91-15.38,16.35-1.96.16-4.21-1.15-5.26-.92-.74.16-5.84,7.91-10.07,8.33-2.82.28-4.11-3.3-6.91-3.05.34,4.57-4.06,9.97-8.75,7.1-2.06-1.26-1.95-6.28-4.33-7.09-1.14,5.9-4.63,9.25-9.91,11.61.26,5.91,2.7,11.35,3.47,17.17.1.77,1.58,3.98-.67,3.9-1.71-.07-7.38-25.98-8.19-29.41-2.33,1.39-1.93,7.51-5.07,8.58-3.71,1.26-5.59-2.01-7.28-1.87-1.59.13-3.17,2.41-4.81,2.88-5.47,1.55-8.85-3.45-7.91-8.5-3.93,2.9-7.04,7.4-12.49,7.66-1.72-.17-4.33-2.51-4.77-4.1-.56-2.02,2.52-10.3-.71-9-1.85.41-8.65,12.83-10.37,10.89-.44-4.51,4.34-8.9,5.43-12.56,1.6-5.37-7.92,4.53-8.71,5.47-1.54,1.83-1.93,4.38-3.81,5.98-2.46-1.74-1.31-2.03-.75-3.99,1.12-3.95,3.32-8.11,2.92-12.35-5.56.64-12.77,13.69-18.07,12.59-5.46-1.13-1.92-6.69-2.1-10.4-.44-.59-8.52,10.59-9.85-1.06l-9.62.92c-3.75-2.36,4.55-13.43,6.23-15.92l.1-1.77c-5.9-6.68-8.5-.14-13.7,2.43-7.54,3.73-15.25,3.91-14.58-6.41-11.27,1.34-16.67-3.54-11.71-14.44,3.12-6.87,12.62-12.06,10.61-.83ZM107.95,149.46c-3.51-.4-7.14,1.06-8.72,4.34,2.25-.88,9.33-.69,8.72-4.34ZM258.47,173.44c2.44-.94,3.39-4.12,3.25-6.54-2.84,1.09-3.63,3.66-3.25,6.54ZM137.4,171.27c-5.46.01-9.83,4.12-8.71,9.81,2.44.2,9.75-8.87,8.71-9.81ZM211.55,182.17c-6.69-.39-8.77,8.48-4.9,13.06,2.11-.03,5.48-10.66,4.9-13.06Z"/>
  <path d="M505.75,103.4c-6.24,6.14-32.14-9.14-36.88-5.8-3.9,2.75,1.09,11.51,3.09,14.49,6.04,9.01,15.12,18.47,21.52,27.55,2.91-9.38,13.07-33.59,24.08-34.89,9.44-1.12,4.47,11.31,2.93,16.11-3.95,12.28-9.08,15.97-9.01,30.22.04,7.97.52,10.98-1.24,19.5-1.96,9.49-5.21,22.14-10.23,30.12-1.27-.68-.33-3.25-.04-4.4,2.63-10.56,8.22-23.84,9.18-34.43.59-6.53-1.4-12.29-.68-18.11.89-7.21,14.28-29.91,11.21-34.67-1.18-1.83-2.15-.7-3.54-.22-9.59,3.3-18.5,25.63-21.04,35.14l-3.29-.52c-5.62-10.4-27.78-31.27-27.3-42.53.71-16.83,30.25,3.69,39.32.52,2.74-2.67-7.1-7.41-8.69-8.2-7.38-3.7-19.22-7.17-27.36-5.48-18.37,3.81-8.02,25.11-7.57,37.67-2.33.42-2.61-1.05-3.26-2.73-3.02-7.86-3.75-21.65-2.2-29.97-19.94,2.15-6.53,25.02-5.45,37.06-3.08.65-3.92-5.66-4.65-7.88-2.66-8.1-2.41-11.79-2.98-19.93-.11-1.62.84-3.15-1.62-2.7-13.18,9.22-.58,23.21,3.8,33.78-2.58,2.46-9.68-12.62-10.34-14.18-.46-1.1-1.92-10.18-3.83-7.62-5.89,20.12,19.98,32.35,20.62,50.8.22,6.26-5.55,27.84-7.89,34.49-.66,1.89-.04,3.64-2.91,3.02.88-12.9,9.28-26.76,7.53-39.7-2.17-16.02-23.27-24.31-20.64-45.92.72-5.9,2.93-5.47,5.11-8.5,6.51-9.05,4.08-4.34,10.98-8.67.82-.52,1.71-3.42,4.28-5,3.83-2.35,7.31-1.48,10.44-2.64,8.56-3.17,8.47-6.02,19.91-5.14,5.87.45,37.95,10.19,28.64,19.34Z"/>
  <path d="M526.46,10.17c3.49,3.4-2.89,8.89-3,12.79,10.04,4.02,13.86-6.27,19.62-11.98-.99,7.72-7.31,16.75-15.77,16.41-2.74-.11-5.37-2.13-7.5-1.95-4.62.39-12.79,7.22-16.59-3.5-2.09-5.91,1.87-7.99-7.59-2.25-1.03,5.18-.57,13.78-8.26,11.56-2.88-.83-1.16-3.61-4.25-2.83-.07,5.25-5.36,9.16-9.29,4.38l-4.58,6.39-6.86-2.05c-.77,6.71-3.09,10.59-9.81,6.54.21,3.45-.87,6.85-4.03,8.62-4.24,1.1-7.6-7.56-10.14-9.71-3.43,6.25.07,9.38.08,14.72.02,7.85-5.33,9.79-10.98,4.9-6.44,29.04-24.32,1.01-15-7.34,3.61-3.24,9.42-.45,7.9,4.06l-4.38-3.22c-4.75,4.2-2.2,11.29.51,15.82,4.24,2.73,8.89-9.73,9.26-12.47.86-6.43-3.3-17.15,9.32-13.2.37-3.49,2-12.02,6.54-9.13.2,4.94,2.12,9.32,6.01,12.37,4.73-5.64,1.15-12.14,1.64-18.52h3.26c4.05,23.67,10.27,2.29,6.54-8.72-10.68,2.68-12.66-.49-1.24-3.42l.16-8.58h3.26s1.63,6.52,1.63,6.52l10.36-5.42c.89,4.28-10.75,8.44-10.98,9.44.03,2.5,1.99,15.27,3.9,15.65,6.24,1.25,4.83-12.8,4.91-16.37,3.02-3.72,3.56,11.39,4.5,11.83,6.35,3.9,6.9-12.71,7.49-16.21,2.9-.27,1.76-.04,2.16,1.64.29,1.22,1.65,15.4,5.46,12.54.87-4.77,4.34-7.62-.1-11.39-.1-5.34,2.69-7,5.01-1.7l7.58-4.33c3.31.76.84,12.99,8.79,12.99s4.54-6.65,4.92-10.18c.5-4.6,6.09-8.09,9.53-4.73ZM523.46,12.08c-3.83-.25-3.42,3.62-3.25,6.54,2.82-1.09,3.65-3.66,3.25-6.54ZM428.59,53.5c1.53,1.6,7.31-5.8,1.1-5.44l-1.1,5.44ZM435.12,54.6l-5.29,2.31c-2.64,4.52,7.43,7.16,5.29-2.31Z"/>
  <path d="M278.08,475.48l-3.27,5.45c-7.1-1.32-1.63-8.78,2.76-8.7,11.47,6.74-4.66,24.64-15.13,18.34-13.24-7.97-7.01-36.34-6.21-50.03-1.63,1.88-7.57,13.97-8.25,16.37s.88,4.13.5,5.81c-.44,1.94-3.97,3.42-4.72,5.13-1.04,2.37-.24,5.13-1.04,7.69-.73,2.34-3.67,3.99-4.49,6.41-.95,2.78.96,7.46-2.66,6.6-2.41-6.66,2.99-9.98,4.09-13.89.69-2.44-.06-4.88,1.08-7.64,1.78-4.26,2.38-2.63,4.17-9.14,1.88-6.85,8.27-8.59,5.91-15.12-4.45,5.51-10,10.04-14.73,15.25-5.86,6.46-20.29,30.25-30.04,20.25-7.94-8.13,1.07-28.33,10.7-23.8,5.67,2.66,4.9,15.06-3,13.37-.93-3.15,2.45-1.88,3.12-3.93.52-1.6.5-5.51-.87-6.51-10.94-3-14.13,21.86-3.08,20.07,6.16-1,16.32-16.53,20.98-21.64,9.7-10.65,20.14-19.58,27.28-32.67,1.73,1.24,1.57,1.62,1.39,3.52-1.44,15.15-13.6,47.44-.34,59.74,1.79,1.66,3.71,3.47,6.34,3.06,4.69-2.62,12.29-8,9.51-14Z"/>
  <path d="M172.28,21.89c2.98,5.47,10.69,29.02,15.32,31.1,3.26,1.47,8.54-1.61,12.4-1.54,2.09.03,6.72,1.29,8.89,2.01,5.06,1.66,29.49,15.44,32.14,19.11,5.26,7.29-.03,9.2-.91,13.36s4.88,13.13-4.55,13.42c2.19,8.16,1.07,14.66-8.74,10.85-.74-4.15,3.32-1.22,5.47-1.56,3.52-2.42-3.17-20.06-6-23.53-8.03-9.87-22.91-8.88-32.19-16.32,17.26,2.51,36.55,7.99,40.9,27.27l2.74-.63c.72-5.15-3.62-15.16-7.21-18.91-4.41-4.6-26.49-12.24-26.59-13.74-.18-2.57,7.42.26,8.2.5,9.12,2.84,23.59,9.44,25.6,19.67,3.54-1.47,2.38-6.16.51-8.7-2.11-2.87-26.27-16.35-30.46-17.52-11.8-3.32-19.59,4.92-26.98-6.82-2.27-3.6-10.77-22.96-10.74-26.36.02-2.15.1-1.77,2.21-1.65Z"/>
  <path d="M249.71,16.44l4.92,8.7,8.17-7.61c1.96,5.06-6.56,8.14-6.55,11.43l6.58,11.46c.84.59,6.88-3.66,7.97-4.54,8.86-7.14,2.32-6.47,2.92-16.16,3.87-1.08,3.76,8.16,4.36,8.72,5.44-1.87,7.96,1.05,2.19,3.79l8.16,12.54c4.7-3.28,8.53-7.42,12.6-11.4,1.16-1.14,4.15-7.36,5.38-2.24l-16.32,16.45c-.46,2.02,5.26,4.82,1.6,7l-5.3-4.28-7.77,6.45c-5.08-3.49,6.59-7.13,6.83-10.33l-7.95-11.46-11.35,8.16c1.72,3.91,6.37,5.49,5.37,10.38l-8.4-7.49-10.13,3.12c-1.23-5.02,5.43-3.8,7.59-7.07l-7.05-10.35-8.16,10.36-3.27-1.11,9.62-12.16c-.57-3.53-3.54-6.19-4.15-9.72-.38-2.23-.48-3.11,2.12-2.66Z"/>
  <path d="M649.96,96.03L598.72.08c2.24-.47,2.53,1.11,3.48,2.51,7.21,10.72,15.76,29.01,22.17,41.08,7.58,14.26,18.42,33.14,24.37,47.6.65,1.58,1.58,2.91,1.22,4.76Z"/>
  <path d="M597.62,358.81l-1.09,21.81c2.37,2.38,18.3-4.91,18.54,2.17l-18.54,1.09,1.09,18.54h-3.26c-.06-9.66-1.66-19.14-1.08-28.88.18-3.08.61-9.3,1.08-12,.32-1.86,1.19-3.06,3.26-2.72Z"/>
  <path d="M585.62,372.98l-1.09,18.53c-4.32,1.17-1.17-6.45-2.18-7.63-4.74.79-9.59,2.16-14.39,2.6-1.54.14-3.17,1.23-4.13-.98s2.23-1.64,3.48-1.93c3.29-.77,12.57-1.75,14.43-3.03,3.77-2.61-.65-8.19,3.89-7.55Z"/>
  <path d="M593.22,7.73l5.49,15.24c-2.18,2.42-8.31-12.34-8.6-13.76-.52-2.53,1.58-1.36,3.11-1.48Z"/>
  <path d="M106.87,139.65c5.68,1.5,12.85-3.38,17.43.53,0,2.05-16.11,3.24-17.43-.53Z"/>
  <path d="M618.34,62.22c-1.89,2.06-7.46-10.01-7.87-11.23-.69-2.06-1.45-2.37.8-4.02l7.08,15.25Z"/>
  <path d="M608.52,42.6c-1.52,1.9-4.87-5.34-5.29-6.15-1.01-1.92-4.48-6.45-1.79-8,1.45,1.96,8.51,12.35,7.08,14.15Z"/>
  <path d="M628.15,81.85c-1.56,1.95-2.42-1.48-2.82-2.05-2.41-3.41-5.07-7.82-4.8-12.12,2.23,1.39,8.87,12.6,7.62,14.17Z"/>
  <path d="M411.14,381.7l3.81-13.07c4.55,2.02-1.52,15.54-3.81,13.07Z"/>
  <path d="M637.97,100.39c-1.72,1.81-8.48-9.85-7.62-11.99,2.15.46,8.35,11.21,7.62,11.99Z"/>
  <path d="M390.43,392.61c2.09-.05,1.06,4.59.81,5.73-.32,1.5-2.26,7.23-3.55,7.33-2.32.18-.77-2.88-.53-3.77.83-3.09,2.92-5.99,3.27-9.29Z"/>
  <path d="M177.22,402.42c2.67-.59,3.63,3.78,1.06,4.35s-3.63-3.78-1.06-4.35Z"/>
  <polygon points="497.29 319.56 496.18 323.91 494.02 323.91 494.02 319.56 497.29 319.56"/>
  <path d="M198.47,166.91v3.26s-3.26,0-3.26,0c-.36-1.99,1.2-3.61,3.26-3.26Z"/>
  <path d="M118.86,394.79c1.65,1.65-3.24,4.65-3.24,1.63,0-.72,2.62-2.26,3.24-1.63Z"/>
  <path d="M188.62,424.8c-2.59-2.26.94-3.58,1.94-5.79,3.43-7.62-4.7-11.41-7.47-4.08-1.75,4.65,2.83,7.88-5.27,9.91-1.47.37-2.91.62-4.43.47l2.19-14.7-2.74-.58c-2.44,5.09-3.8,12.59-10.35,14.19-1.46-4.12,4.03-14.48-1.87-16.14-3.44-.97-5.8-.08-8.52-3.24l-2.42,2.47c5.58,5.78-6.35,15.93-11.59,14.81l-1.69-4.82c.33-1.19,12.83-6.61,6.52-11.15-5.8-4.18-7.85,9.11-12.59,8.26l-2.69-10.26c-3-4.16-10.28,11.85-14.24,12.44l1.07-14.17c-1.86-.36-2.27.41-2.99,1.9-2.09,4.28-2.59,12.31-8.99,13.36-2.88-5.93,2.47-12.45-1.64-17.42-2.76,0-1.81,16.29-7.62,16.34-2.25.05,2.63-20.27-2.73-16.36l-6.01,17.42c-4.95.07,2.06-31.91-13.62-13.06.39-7.26-2.37-11.72-9.11-6.37-2.41,1.91-9.35,14.4-12.71,11.82-2.22-4.47,3.15-5.99,5.45-9.26,6.71-9.57-4.66-12.4-8.79-1.16-.84,2.3-.66,5.34-1.59,7.14-1.42,2.75-7.48,7.01-8.21.62-1.12-9.7,2.95-21.45-9.75-7.14.28-2.59.14-6.08-2.47-7.22-.64-.28-1.38-.14-1.86.36l-7.66,7.95c1.64-19.9-13.07-7.2-14.18,3.27,1.74-.34,9.06-11.95,10.89-9.81l1.1,18.53c2.33,2.68,4.72-8.34,5.23-9.47.95-2.1,2.27-4.06,3.49-6.02.33-.53.95-.79,1.55-.65l.68.16c.7.16,1.19.77,1.22,1.49.14,3.81-1.59,12.32-.17,13.39,3.62,2.75,5.11-13.95,8.71-14.17-1.12,10.53.65,21.35,12.56,12.01,8.7,12.7,14.06-8.84,22.35-10.92v17.45c4.61,2.03,7.69-17.81,10.9-14.17-.28,4.17-.41,16.62,4.93,17.49,5.13.83,4.67-3.54,5.73-3.78.22,1.13,1.21,2.45,2.36,3.22,2.81,1.88,5.41-.57,7.16-2.75,1.99,5.9,9.81,5.88,11.42,0,4.03,9.56,10.94-3.51,15.28-6.54,1.98,6.61-7.35,7.11-3.36,13.71l2.82,1.59c4.35-.19,4.3-7.55,6.56-8.75,2.46-1.3,2.12,7.71,4.87,8.18,4.43,1.76,8.62-.47,12.04-3.26,4.9-4,5.26-11.27,11.97-10.37-2.4,9.16-3.53,21.75,9.25,13.06,3.82,9.71,11.35,1.31,15.27,1.08.71-.04.27,2.16,2.63,2.83,6.39,1.83,14.9-1.03,17.57-7.15-1.04-.86-12.38,6.47-16.39,3.84ZM140.91,408.49c.59.27.6,1.83,0,2.89-.99,1.74-3.53,1.91-3.92,1.31-.57-.9,2.83-4.7,3.92-4.19ZM53.43,395.89l-4.35,5.44c-.44-2.61,1.4-5.68,4.35-5.44ZM185.92,419.14c-1.12-.41-1.28-4.28,0-4.87.82-.38,2.46.48,2.77,1.81.41,1.81-1.87,3.39-2.77,3.06Z"/>
  <path d="M559.45,65.49c-.79-.76,3.39-6.4.84-8.47-5.03-4.09-9.78,5.52-12.14,5.12-12.23-10.24-.66-29.09,2.57-40.83.25-.9,1.75-3.98-.54-3.77-3.79.34-10.08,25.56-10.34,29.98-.53,8.88,1.05,11.68,6.43,18.37-4.94,9.08-13.57,13.11-20.65,19.77-9.42,8.86-18.38,18.41-27.25,27.81,2.13.45,2.93-.48,4.42-1.57,7.55-5.56,16.36-16.62,24.51-23.47,4.74-3.98,25.81-20.74,30.36-20.71,1.55.01,5.24,1.27,6.99,1.84,22.18,7.22,20.07,37.61,12.22,54.82-1.74,1.58-4.37-4.76-5.47-5.96-7.29-7.98-19.21-12.78-29.37-6.53-9.79,6.03-7.67,15.13-.61,22.33,10.16,10.36,23.09,7.48,33.27-1.11,1.86,7.31,2.65,14.82,2.24,22.39-.51,9.39-4.68,19-5.41,27.32-.2,2.28-.73,3.01,2.07,2.62,4.23-13.37,7.52-26.67,6.55-40.87-.28-4.15-2.95-12.23-2.78-15.3.12-2.25,3.52-6.55,4.41-9.27,6.62-20.33,4.56-52.36-22.33-54.5ZM546.44,69.48c-.47-.47.01-2.6,1.45-2.83.89-.15,1.92.47,1.95,1.07.05,1.03-2.8,2.36-3.4,1.76ZM552.92,64.4c-.71-2,3.32-5.34,4.35-4.35.71,2-3.32,5.34-4.35,4.35ZM544.74,133.09c-9.38-8.32-7.29-19.01,5.75-20.45,9.41-1.03,19.61,6.98,22.78,15.54-5.37,9.44-20.18,12.32-28.53,4.91Z"/>
</svg>